<?xml version="1.0" encoding="UTF-8" standalone="no"?>
<!-- Created with Inkscape (http://www.inkscape.org/) -->

<svg
   version="1.1"
   id="svg8259"
   xml:space="preserve"
   width="682.66669"
   height="682.66669"
   viewBox="0 0 682.66669 682.66669"
   xmlns="http://www.w3.org/2000/svg"
   xmlns:svg="http://www.w3.org/2000/svg"><defs
     id="defs8263"><clipPath
       clipPathUnits="userSpaceOnUse"
       id="clipPath8273"><path
         d="M 0,512 H 512 V 0 H 0 Z"
         id="path8271" /></clipPath></defs><g
     id="g8265"
     transform="matrix(1.3333333,0,0,-1.3333333,0,682.66667)"><g
       id="g8267"><g
         id="g8269"
         clip-path="url(#clipPath8273)"><g
           id="g8275"
           transform="translate(262.9375,255.5371)"><path
             d="m 0,0 h -30.358 c -5.424,0 -9.821,4.396 -9.821,9.82 v 30.359 c 0,5.424 4.397,9.821 9.821,9.821 H 0 c 5.424,0 9.821,-4.397 9.821,-9.821 V 9.82 C 9.821,4.396 5.424,0 0,0"
             style="fill:#29cef6;fill-opacity:1;fill-rule:nonzero;stroke:none"
             id="path8277" /></g><g
           id="g8279"
           transform="translate(369.6826,144.9443)"><path
             d="m 0,0 -224.738,224.738 c -2.665,2.664 -7.195,1.659 -8.483,-1.881 l -128.652,-353.625 c -1.442,-3.964 2.402,-7.809 6.367,-6.367 L -1.881,-8.482 C 1.659,-7.194 2.664,-2.665 0,0"
             style="fill:#f78e36;fill-opacity:1;fill-rule:nonzero;stroke:none"
             id="path8281" /></g><g
           id="g8283"
           transform="translate(7.8096,14.1768)"><path
             d="m 0,0 7.698,21.158 c 0.502,1.381 1.589,2.468 2.97,2.971 l 335.709,122.134 15.496,-15.495 c 2.664,-2.665 1.659,-7.195 -1.881,-8.483 L 6.367,-6.367 C 2.402,-7.81 -1.442,-3.965 0,0"
             style="fill:#f86f1b;fill-opacity:1;fill-rule:nonzero;stroke:none"
             id="path8285" /></g><g
           id="g8287"
           transform="translate(135.125,51.8135)"><path
             d="M 0,0 -92.079,59.228 -105.395,22.606 -44.88,-16.327 Z"
             style="fill:#f3f3f3;fill-opacity:1;fill-rule:nonzero;stroke:none"
             id="path8289" /></g><g
           id="g8291"
           transform="translate(61.5234,53.9658)"><path
             d="M 0,0 44.875,16.326 73.602,-2.152 28.722,-18.479 Z"
             style="fill:#e4e4e4;fill-opacity:1;fill-rule:nonzero;stroke:none"
             id="path8293" /></g><g
           id="g8295"
           transform="translate(246.9609,92.501)"><path
             d="M 0,0 -170.702,109.807 -184.024,73.192 -44.866,-16.327 Z"
             style="fill:#f3f3f3;fill-opacity:1;fill-rule:nonzero;stroke:none"
             id="path8297" /></g><g
           id="g8299"
           transform="translate(173.3652,94.6553)"><path
             d="M 0,0 44.87,16.324 73.596,-2.154 28.729,-18.481 Z"
             style="fill:#e4e4e4;fill-opacity:1;fill-rule:nonzero;stroke:none"
             id="path8301" /></g><g
           id="g8303"
           transform="translate(358.7969,133.1875)"><path
             d="M 0,0 -249.34,160.386 -262.654,123.779 -44.866,-16.327 Z"
             style="fill:#f3f3f3;fill-opacity:1;fill-rule:nonzero;stroke:none"
             id="path8305" /></g><g
           id="g8307"
           transform="translate(330.0703,151.666)"><path
             d="M 0,0 28.727,-18.479 -16.14,-34.806 -44.868,-16.324 Z"
             style="fill:#e4e4e4;fill-opacity:1;fill-rule:nonzero;stroke:none"
             id="path8309" /></g><g
           id="g8311"
           transform="translate(191.7051,416.9355)"><path
             d="m 0,0 -24.997,17.228 c -4.466,3.078 -5.591,9.193 -2.514,13.659 l 17.228,24.997 c 3.078,4.466 9.194,5.591 13.66,2.513 L 28.373,41.17 c 4.467,-3.078 5.592,-9.194 2.514,-13.66 L 13.659,2.514 C 10.581,-1.953 4.466,-3.078 0,0"
             style="fill:#f75632;fill-opacity:1;fill-rule:nonzero;stroke:none"
             id="path8313" /></g><g
           id="g8315"
           transform="translate(440.6523,300.7637)"><path
             d="m 0,0 -15.179,26.291 c -2.712,4.697 -1.102,10.703 3.595,13.415 l 26.291,15.18 c 4.697,2.712 10.703,1.102 13.415,-3.595 L 43.302,25 C 46.014,20.303 44.404,14.297 39.707,11.585 L 13.416,-3.595 C 8.719,-6.307 2.712,-4.697 0,0"
             style="fill:#ffd54f;fill-opacity:1;fill-rule:nonzero;stroke:none"
             id="path8317" /></g><g
           id="g8319"
           transform="translate(440.4629,178.748)"><path
             d="m 0,0 v 30.358 c 0,5.424 4.397,9.822 9.821,9.822 H 40.18 c 5.424,0 9.82,-4.398 9.82,-9.822 V 0 c 0,-5.424 -4.396,-9.82 -9.82,-9.82 H 9.821 C 4.397,-9.82 0,-5.424 0,0"
             style="fill:#f75632;fill-opacity:1;fill-rule:nonzero;stroke:none"
             id="path8321" /></g><g
           id="g8323"
           transform="translate(384.2803,459.8672)"><path
             d="m 0,0 v 30.358 c 0,5.424 4.397,9.821 9.821,9.821 H 40.18 c 5.424,0 9.82,-4.397 9.82,-9.821 V 0 c 0,-5.424 -4.396,-9.821 -9.82,-9.821 H 9.821 C 4.397,-9.821 0,-5.424 0,0"
             style="fill:#ffd54f;fill-opacity:1;fill-rule:nonzero;stroke:none"
             id="path8325" /></g><g
           id="g8327"
           transform="translate(92.3516,472.7578)"><path
             d="m 0,0 -18.992,10.388 c -0.433,0.236 -0.787,0.591 -1.024,1.023 l -10.387,18.992 c -0.976,1.785 -3.54,1.785 -4.516,0 L -45.307,11.411 c -0.236,-0.432 -0.59,-0.787 -1.023,-1.023 L -65.322,0 c -1.785,-0.976 -1.785,-3.54 0,-4.516 l 18.992,-10.387 c 0.433,-0.237 0.787,-0.591 1.023,-1.024 l 10.388,-18.992 c 0.976,-1.785 3.54,-1.785 4.516,0 l 10.387,18.992 c 0.237,0.433 0.591,0.787 1.024,1.024 L 0,-4.516 C 1.785,-3.54 1.785,-0.976 0,0"
             style="fill:#ffc328;fill-opacity:1;fill-rule:nonzero;stroke:none"
             id="path8329" /></g><g
           id="g8331"
           transform="translate(61.9482,437.8389)"><path
             d="m 0,0 10.388,18.992 c 0.236,0.433 0.591,0.787 1.023,1.024 l 18.992,10.387 c 1.785,0.977 1.785,3.539 0,4.516 L 11.411,45.307 c -0.432,0.236 -0.787,0.59 -1.023,1.023 L 0,65.322 c -0.488,0.893 -1.373,1.339 -2.258,1.339 v -68 c 0.885,0 1.77,0.446 2.258,1.339"
             style="fill:#ffa000;fill-opacity:1;fill-rule:nonzero;stroke:none"
             id="path8333" /></g><g
           id="g8335"
           transform="translate(503.1611,43.7578)"><path
             d="m 0,0 -18.992,10.388 c -0.433,0.236 -0.787,0.591 -1.024,1.023 l -10.387,18.992 c -0.976,1.785 -3.54,1.785 -4.516,0 L -45.307,11.411 c -0.236,-0.432 -0.59,-0.787 -1.023,-1.023 L -65.322,0 c -1.785,-0.976 -1.785,-3.54 0,-4.516 l 18.992,-10.387 c 0.433,-0.237 0.787,-0.591 1.023,-1.024 l 10.388,-18.992 c 0.976,-1.785 3.54,-1.785 4.516,0 l 10.387,18.992 c 0.237,0.433 0.591,0.787 1.024,1.024 L 0,-4.516 C 1.785,-3.54 1.785,-0.976 0,0"
             style="fill:#ffc328;fill-opacity:1;fill-rule:nonzero;stroke:none"
             id="path8337" /></g><g
           id="g8339"
           transform="translate(472.7578,8.8389)"><path
             d="m 0,0 10.388,18.992 c 0.236,0.433 0.591,0.787 1.023,1.024 l 18.992,10.387 c 1.785,0.977 1.785,3.54 0,4.516 L 11.411,45.307 c -0.432,0.236 -0.787,0.591 -1.023,1.023 L 0,65.322 c -0.488,0.893 -1.373,1.339 -2.258,1.339 v -68 c 0.885,0 1.77,0.446 2.258,1.339"
             style="fill:#ffa000;fill-opacity:1;fill-rule:nonzero;stroke:none"
             id="path8341" /></g><g
           id="g8343"
           transform="translate(308.6328,411.79)"><path
             d="m 0,0 c -1.071,7.033 -2.083,13.676 -2.101,19.857 -0.046,16.296 7.9,32.895 20.498,43.309 1.628,1.346 1.99,3.692 0.768,5.415 L 6.41,86.57 C 5.096,88.425 2.484,88.818 0.705,87.405 -27.621,64.92 -36.94,30.55 -29.657,-4.516 c 1.912,-12.567 3.564,-23.42 -0.114,-32.17 -3.55,-8.443 -13.649,-14.145 -22.839,-13.429 -1.906,0.148 -3.663,-1.016 -4.146,-2.865 l -5.637,-21.602 c -0.591,-2.27 0.9,-4.549 3.212,-4.94 23.14,-3.922 47.826,9.11 57.064,31.209 C 4.837,-31.774 2.267,-14.894 0,0"
             style="fill:#29cef6;fill-opacity:1;fill-rule:nonzero;stroke:none"
             id="path8345" /></g><g
           id="g8347"
           transform="translate(370.5527,346.4473)"><path
             d="m 0,0 c 10.521,6.991 22.577,12.019 35.34,17.342 16.168,6.742 32.886,13.714 47.628,25.314 21.985,17.298 36.79,43.818 40.152,71.596 0.272,2.246 -1.391,4.267 -3.644,4.446 l -21.992,1.752 c -2.12,0.169 -3.978,-1.36 -4.256,-3.468 C 90.621,97.272 80.035,78.521 64.417,66.232 52.896,57.167 38.759,51.271 23.793,45.03 -26.832,26.648 -63.504,-7.943 -71.182,-62.553 c -0.315,-2.246 1.301,-4.308 3.557,-4.531 l 21.911,-2.155 c 2.126,-0.21 4.024,1.3 4.325,3.414 C -37.643,-39.598 -22.035,-14.643 0,0"
             style="fill:#f75632;fill-opacity:1;fill-rule:nonzero;stroke:none"
             id="path8349" /></g><g
           id="g8351"
           transform="translate(443.3613,270.5117)"><path
             d="m 0,0 c -14.207,-0.853 -28.521,1.917 -43.394,-0.142 -25.172,-3.308 -47.714,-18.94 -59.767,-41.172 -1.079,-1.993 -0.231,-4.488 1.816,-5.458 l 19.956,-9.469 c 1.854,-0.879 4.101,-0.222 5.122,1.557 7.592,13.226 21.665,22.811 36.783,24.798 6.38,0.839 13.303,0.495 20.632,0.128 23.933,-2.04 53.794,1.464 66.66,26.037 1.098,2.099 0.086,4.693 -2.129,5.536 L 24.815,9.769 C 23.136,10.408 21.273,9.816 20.182,8.388 16.32,3.332 7.704,0.549 0,0"
             style="fill:#ffd54f;fill-opacity:1;fill-rule:nonzero;stroke:none"
             id="path8353" /></g><g
           id="g8355"
           transform="translate(259.0801,255.54)"><path
             d="m 0,0 h 3.86 c 5.42,0 9.82,4.39 9.82,9.82 V 40.18 C 13.68,45.6 9.28,50 3.86,50 H -26.5 c -5.42,0 -9.82,-4.4 -9.82,-9.82 v -3.86"
             style="fill:none;stroke:#000000;stroke-width:15;stroke-linecap:round;stroke-linejoin:round;stroke-miterlimit:10;stroke-dasharray:none;stroke-opacity:1"
             id="path8357" /></g><g
           id="g8359"
           transform="translate(165.001,349.625)"><path
             d="m 0,0 -20.057,20.058 c -2.665,2.664 -7.194,1.659 -8.482,-1.881 l -128.652,-353.625 c -1.443,-3.965 2.402,-7.81 6.367,-6.367 l 353.625,128.652 c 3.54,1.288 4.545,5.817 1.881,8.482 L 22.62,-22.62"
             style="fill:none;stroke:#000000;stroke-width:15;stroke-linecap:round;stroke-linejoin:round;stroke-miterlimit:10;stroke-dasharray:none;stroke-opacity:1"
             id="path8361" /></g><g
           id="g8363"
           transform="translate(135.125,51.8135)"><path
             d="M 0,0 -92.079,59.228 -105.395,22.606 -44.88,-16.327 Z"
             style="fill:none;stroke:#000000;stroke-width:15;stroke-linecap:round;stroke-linejoin:round;stroke-miterlimit:10;stroke-dasharray:none;stroke-opacity:1"
             id="path8365" /></g><g
           id="g8367"
           transform="translate(182.8115,88.5781)"><path
             d="M 0,0 19.283,-12.404 64.149,3.923 -106.553,113.729 -119.875,77.115 -26.909,17.312"
             style="fill:none;stroke:#000000;stroke-width:15;stroke-linecap:round;stroke-linejoin:round;stroke-miterlimit:10;stroke-dasharray:none;stroke-opacity:1"
             id="path8369" /></g><g
           id="g8371"
           transform="translate(358.7969,133.1875)"><path
             d="M 0,0 -249.34,160.386 -262.654,123.779 -44.866,-16.327 Z"
             style="fill:none;stroke:#000000;stroke-width:15;stroke-linecap:round;stroke-linejoin:round;stroke-miterlimit:10;stroke-dasharray:none;stroke-opacity:1"
             id="path8373" /></g><g
           id="g8375"
           transform="translate(92.3516,472.7578)"><path
             d="m 0,0 -18.992,10.388 c -0.433,0.236 -0.787,0.591 -1.024,1.023 l -10.387,18.992 c -0.976,1.785 -3.54,1.785 -4.516,0 L -45.307,11.411 c -0.236,-0.432 -0.59,-0.787 -1.023,-1.023 L -65.322,0 c -1.785,-0.976 -1.785,-3.54 0,-4.516 l 18.992,-10.387 c 0.433,-0.237 0.787,-0.591 1.023,-1.024 l 10.388,-18.992 c 0.976,-1.785 3.54,-1.785 4.516,0 l 10.387,18.992 c 0.237,0.433 0.591,0.787 1.024,1.024 L 0,-4.516 C 1.785,-3.54 1.785,-0.976 0,0 Z"
             style="fill:none;stroke:#000000;stroke-width:15;stroke-linecap:round;stroke-linejoin:round;stroke-miterlimit:10;stroke-dasharray:none;stroke-opacity:1"
             id="path8377" /></g><g
           id="g8379"
           transform="translate(503.1611,43.7578)"><path
             d="m 0,0 -18.992,10.388 c -0.433,0.236 -0.787,0.591 -1.024,1.023 l -10.387,18.992 c -0.976,1.785 -3.54,1.785 -4.516,0 L -45.307,11.411 c -0.236,-0.432 -0.59,-0.787 -1.023,-1.023 L -65.322,0 c -1.785,-0.976 -1.785,-3.54 0,-4.516 l 18.992,-10.387 c 0.433,-0.237 0.787,-0.591 1.023,-1.024 l 10.388,-18.992 c 0.976,-1.785 3.54,-1.785 4.516,0 l 10.387,18.992 c 0.237,0.433 0.591,0.787 1.024,1.024 L 0,-4.516 C 1.785,-3.54 1.785,-0.976 0,0 Z"
             style="fill:none;stroke:#000000;stroke-width:15;stroke-linecap:round;stroke-linejoin:round;stroke-miterlimit:10;stroke-dasharray:none;stroke-opacity:1"
             id="path8381" /></g><g
           id="g8383"
           transform="translate(191.7051,416.9355)"><path
             d="m 0,0 -24.997,17.228 c -4.466,3.078 -5.591,9.193 -2.514,13.659 l 17.228,24.997 c 3.078,4.466 9.194,5.591 13.66,2.513 L 28.373,41.17 c 4.467,-3.078 5.592,-9.194 2.514,-13.66 L 13.659,2.514 C 10.581,-1.953 4.466,-3.078 0,0 Z"
             style="fill:none;stroke:#000000;stroke-width:15;stroke-linecap:round;stroke-linejoin:round;stroke-miterlimit:10;stroke-dasharray:none;stroke-opacity:1"
             id="path8385" /></g><g
           id="g8387"
           transform="translate(440.6523,300.7637)"><path
             d="m 0,0 -15.179,26.291 c -2.712,4.697 -1.102,10.703 3.595,13.415 l 26.291,15.18 c 4.697,2.712 10.703,1.102 13.415,-3.595 L 43.302,25 C 46.014,20.303 44.404,14.297 39.707,11.585 L 13.416,-3.595 C 8.719,-6.307 2.712,-4.697 0,0 Z"
             style="fill:none;stroke:#000000;stroke-width:15;stroke-linecap:round;stroke-linejoin:round;stroke-miterlimit:10;stroke-dasharray:none;stroke-opacity:1"
             id="path8389" /></g><g
           id="g8391"
           transform="translate(440.4629,178.748)"><path
             d="m 0,0 v 30.358 c 0,5.424 4.397,9.822 9.821,9.822 H 40.18 c 5.424,0 9.82,-4.398 9.82,-9.822 V 0 c 0,-5.424 -4.396,-9.82 -9.82,-9.82 H 9.821 C 4.397,-9.82 0,-5.424 0,0 Z"
             style="fill:none;stroke:#000000;stroke-width:15;stroke-linecap:round;stroke-linejoin:round;stroke-miterlimit:10;stroke-dasharray:none;stroke-opacity:1"
             id="path8393" /></g><g
           id="g8395"
           transform="translate(384.2803,459.8672)"><path
             d="m 0,0 v 30.358 c 0,5.424 4.397,9.821 9.821,9.821 H 40.18 c 5.424,0 9.82,-4.397 9.82,-9.821 V 0 c 0,-5.424 -4.396,-9.821 -9.82,-9.821 H 9.821 C 4.397,-9.821 0,-5.424 0,0 Z"
             style="fill:none;stroke:#000000;stroke-width:15;stroke-linecap:round;stroke-linejoin:round;stroke-miterlimit:10;stroke-dasharray:none;stroke-opacity:1"
             id="path8397" /></g><g
           id="g8399"
           transform="translate(308.6328,411.79)"><path
             d="m 0,0 c -1.071,7.033 -2.083,13.676 -2.101,19.857 -0.046,16.296 7.9,32.895 20.498,43.309 1.628,1.346 1.99,3.692 0.768,5.415 L 6.41,86.57 C 5.096,88.425 2.484,88.818 0.705,87.405 -27.621,64.92 -36.94,30.55 -29.657,-4.516 c 1.912,-12.567 3.564,-23.42 -0.114,-32.17 -3.55,-8.443 -13.649,-14.145 -22.839,-13.429 -1.906,0.148 -3.663,-1.016 -4.146,-2.865 l -5.637,-21.602 c -0.591,-2.27 0.9,-4.549 3.212,-4.94 23.14,-3.922 47.826,9.11 57.064,31.209 C 4.837,-31.774 2.267,-14.894 0,0 Z"
             style="fill:none;stroke:#000000;stroke-width:15;stroke-linecap:round;stroke-linejoin:round;stroke-miterlimit:10;stroke-dasharray:none;stroke-opacity:1"
             id="path8401" /></g><g
           id="g8403"
           transform="translate(475.6172,412.9346)"><path
             d="m 0,0 c 9.653,14.232 15.998,30.763 18.056,47.765 0.271,2.246 -1.391,4.266 -3.645,4.446 L -7.58,53.963 c -2.12,0.169 -3.979,-1.36 -4.257,-3.468 -2.606,-19.71 -13.192,-38.461 -28.81,-50.75 -11.522,-9.065 -25.659,-14.961 -40.624,-21.202 -50.625,-18.382 -87.297,-52.974 -94.975,-107.583 -0.316,-2.246 1.301,-4.309 3.557,-4.531 l 21.911,-2.156 c 2.126,-0.21 4.023,1.3 4.325,3.415 3.746,26.227 19.353,51.182 41.389,65.825 10.521,6.991 22.577,12.018 35.339,17.341 16.168,6.743 32.886,13.714 47.628,25.315"
             style="fill:none;stroke:#000000;stroke-width:15;stroke-linecap:round;stroke-linejoin:round;stroke-miterlimit:10;stroke-dasharray:none;stroke-opacity:1"
             id="path8405" /></g><g
           id="g8407"
           transform="translate(443.3613,270.5117)"><path
             d="m 0,0 c -14.207,-0.853 -28.521,1.917 -43.394,-0.142 -25.172,-3.308 -47.714,-18.94 -59.767,-41.172 -1.079,-1.993 -0.231,-4.488 1.816,-5.458 l 19.956,-9.469 c 1.854,-0.879 4.101,-0.222 5.122,1.557 7.592,13.226 21.665,22.811 36.783,24.798 6.38,0.839 13.303,0.495 20.632,0.128 23.933,-2.04 53.794,1.464 66.66,26.037 1.098,2.099 0.086,4.693 -2.129,5.536 L 24.815,9.769 C 23.136,10.408 21.273,9.816 20.182,8.388 16.32,3.332 7.704,0.549 0,0 Z"
             style="fill:none;stroke:#000000;stroke-width:15;stroke-linecap:round;stroke-linejoin:round;stroke-miterlimit:10;stroke-dasharray:none;stroke-opacity:1"
             id="path8409" /></g></g></g></g></svg>
