<?xml version="1.0" encoding="UTF-8" standalone="no"?>
<!-- Created with Inkscape (http://www.inkscape.org/) -->

<svg
   version="1.1"
   id="svg1569"
   xml:space="preserve"
   width="682.66669"
   height="682.66669"
   viewBox="0 0 682.66669 682.66669"
   xmlns="http://www.w3.org/2000/svg"
   xmlns:svg="http://www.w3.org/2000/svg"><defs
     id="defs1573"><clipPath
       clipPathUnits="userSpaceOnUse"
       id="clipPath1583"><path
         d="M 0,512 H 512 V 0 H 0 Z"
         id="path1581" /></clipPath></defs><g
     id="g1575"
     transform="matrix(1.3333333,0,0,-1.3333333,0,682.66667)"><g
       id="g1577"><g
         id="g1579"
         clip-path="url(#clipPath1583)"><g
           id="g1585"
           transform="translate(283.9727,187.2969)"><path
             d="m 0,0 -56.418,0.061 c -7.246,0.007 -13.113,5.887 -13.105,13.132 L -69.301,221.93 13.355,221.842 13.134,13.105 C 13.126,5.86 7.246,-0.008 0,0"
             style="fill:#fff200;fill-opacity:1;fill-rule:nonzero;stroke:none"
             id="path1587" /></g><g
           id="g1589"
           transform="translate(214.6714,409.2271)"><path
             d="m 0,0 v -0.043 l 42.657,-0.045 -0.222,-208.737 c -0.008,-6.96 -5.437,-12.633 -12.287,-13.063 l 39.153,-0.042 c 7.246,-0.007 13.126,5.86 13.134,13.105 l 0.222,208.737 z"
             style="fill:#f7eb00;fill-opacity:1;fill-rule:nonzero;stroke:none"
             id="path1591" /></g><g
           id="g1593"
           transform="translate(256.124,504.5)"><path
             d="M 0,0 -62.828,-95.25 62.579,-95.384 Z"
             style="fill:#ad6bff;fill-opacity:1;fill-rule:nonzero;stroke:none"
             id="path1595" /></g><g
           id="g1597"
           transform="translate(278.6758,409.1587)"><path
             d="M 0,0 40.027,-0.043 -22.552,95.341 -42.605,64.939 Z"
             style="fill:#a55cff;fill-opacity:1;fill-rule:nonzero;stroke:none"
             id="path1599" /></g><g
           id="g1601"
           transform="translate(297.2041,292.8564)"><path
             d="M 0,0 -82.607,46.035 -82.562,89.354 0.047,43.319 Z"
             style="fill:#c89cff;fill-opacity:1;fill-rule:nonzero;stroke:none"
             id="path1603" /></g><g
           id="g1605"
           transform="translate(297.1152,208.9458)"><path
             d="M 0,0 -82.608,46.035 -82.562,89.353 0.046,43.318 Z"
             style="fill:#c89cff;fill-opacity:1;fill-rule:nonzero;stroke:none"
             id="path1607" /></g><g
           id="g1609"
           transform="translate(108.2847,92.124)"><path
             d="m 0,0 53.704,17.324 c 6.892,2.224 10.679,9.611 8.461,16.504 l -16.008,49.75 -16.908,21.47 2.959,21.885 -11.753,36.526 -17.748,24.081 3.802,19.261 -8.274,25.715 -78.674,-25.38 22.345,-69.448 15.027,-15.623 -1.76,-25.608 12.033,-37.4 16.978,-21.685 -3.313,-20.784 2.613,-8.121 C -14.295,1.566 -6.899,-2.226 0,0"
             style="fill:#50d9b2;fill-opacity:1;fill-rule:nonzero;stroke:none"
             id="path1611" /></g><g
           id="g1613"
           transform="translate(170.4492,125.9521)"><path
             d="m 0,0 -16.69,51.873 -16.295,19.562 3.028,21.669 -11.752,36.527 -16.909,21.47 2.963,21.872 -8.274,25.715 -37.001,-12 L -37,-11.999 c 2.094,-6.509 -1.169,-13.453 -7.341,-16.079 l 35.88,11.575 C -1.569,-14.28 2.218,-6.894 0,0"
             style="fill:#4ac9a5;fill-opacity:1;fill-rule:nonzero;stroke:none"
             id="path1615" /></g><g
           id="g1617"
           transform="translate(37.9697,402.6685)"><path
             d="M 0,0 88.896,-71.465 -30.47,-109.971 Z"
             style="fill:#fff200;fill-opacity:1;fill-rule:nonzero;stroke:none"
             id="path1619" /></g><g
           id="g1621"
           transform="translate(88.4771,318.8198)"><path
             d="m 0,0 38.388,12.383 -88.895,71.466 -9.8,-35.367 z"
             style="fill:#f7eb00;fill-opacity:1;fill-rule:nonzero;stroke:none"
             id="path1623" /></g><g
           id="g1625"
           transform="translate(63.4575,188.5806)"><path
             d="M 0,0 64.603,69.112 51.336,110.344 -13.267,41.231 Z"
             style="fill:#ffe7ba;fill-opacity:1;fill-rule:nonzero;stroke:none"
             id="path1627" /></g><g
           id="g1629"
           transform="translate(89.1558,108.7124)"><path
             d="M 0,0 64.603,69.112 51.336,110.344 -13.267,41.231 Z"
             style="fill:#ffe7ba;fill-opacity:1;fill-rule:nonzero;stroke:none"
             id="path1631" /></g><g
           id="g1633"
           transform="translate(403.7148,92.124)"><path
             d="m 0,0 -53.703,17.324 c -6.893,2.224 -10.679,9.611 -8.461,16.504 l 16.69,51.873 16.162,19.153 -2.895,22.079 12.432,38.636 15.714,17.763 -2.448,23.469 8.275,25.715 L 80.44,207.136 58.095,137.688 41.513,117.232 44.828,96.457 32.981,59.64 16.073,38.17 19.13,16.588 16.517,8.467 C 14.296,1.566 6.899,-2.226 0,0"
             style="fill:#25cdec;fill-opacity:1;fill-rule:nonzero;stroke:none"
             id="path1635" /></g><g
           id="g1637"
           transform="translate(443.9814,312.2202)"><path
             d="m 0,0 -63.75,-198.129 c -2.221,-6.901 -9.617,-10.693 -16.517,-8.468 l -17.157,5.535 c 1.036,-0.719 2.192,-1.302 3.454,-1.709 l 53.703,-17.325 c 6.9,-2.226 14.296,1.566 16.517,8.467 l 2.613,8.121 -3.024,21.679 16.291,19.553 12.432,38.636 -3.052,21.595 16.318,19.637 22.345,69.448 z"
             style="fill:#0bc5e8;fill-opacity:1;fill-rule:nonzero;stroke:none"
             id="path1639" /></g><g
           id="g1641"
           transform="translate(474.0303,402.6685)"><path
             d="M 0,0 -88.896,-71.465 30.47,-109.971 Z"
             style="fill:#ff6381;fill-opacity:1;fill-rule:nonzero;stroke:none"
             id="path1643" /></g><g
           id="g1645"
           transform="translate(460.5742,306.8672)"><path
             d="M 0,0 43.926,-14.17 13.456,95.801 -19.258,69.502 Z"
             style="fill:#fa4b6d;fill-opacity:1;fill-rule:nonzero;stroke:none"
             id="path1647" /></g><g
           id="g1649"
           transform="translate(448.543,188.5806)"><path
             d="m 0,0 -64.604,69.112 13.267,41.232 64.604,-69.113 z"
             style="fill:#d1edf9;fill-opacity:1;fill-rule:nonzero;stroke:none"
             id="path1651" /></g><g
           id="g1653"
           transform="translate(422.8447,108.7124)"><path
             d="m 0,0 -64.604,69.112 13.267,41.232 64.604,-69.113 z"
             style="fill:#d1edf9;fill-opacity:1;fill-rule:nonzero;stroke:none"
             id="path1655" /></g><g
           id="g1657"
           transform="translate(283.9727,187.2969)"><path
             d="m 0,0 -56.418,0.061 c -7.246,0.007 -13.113,5.887 -13.105,13.132 L -69.301,221.93 13.355,221.842 13.134,13.105 C 13.126,5.86 7.246,-0.008 0,0 Z"
             style="fill:none;stroke:#060606;stroke-width:15;stroke-linecap:round;stroke-linejoin:round;stroke-miterlimit:10;stroke-dasharray:none;stroke-opacity:1"
             id="path1659" /></g><g
           id="g1661"
           transform="translate(256.124,504.5)"><path
             d="M 0,0 -62.828,-95.25 62.579,-95.384 Z"
             style="fill:none;stroke:#060606;stroke-width:15;stroke-linecap:round;stroke-linejoin:round;stroke-miterlimit:10;stroke-dasharray:none;stroke-opacity:1"
             id="path1663" /></g><g
           id="g1665"
           transform="translate(214.6426,382.21)"><path
             d="M 0,0 82.608,-46.035"
             style="fill:none;stroke:#060606;stroke-width:15;stroke-linecap:round;stroke-linejoin:round;stroke-miterlimit:10;stroke-dasharray:none;stroke-opacity:1"
             id="path1667" /></g><g
           id="g1669"
           transform="translate(297.2041,292.8564)"><path
             d="M 0,0 -82.607,46.035"
             style="fill:none;stroke:#060606;stroke-width:15;stroke-linecap:round;stroke-linejoin:round;stroke-miterlimit:10;stroke-dasharray:none;stroke-opacity:1"
             id="path1671" /></g><g
           id="g1673"
           transform="translate(297.1152,208.9458)"><path
             d="M 0,0 -82.608,46.035"
             style="fill:none;stroke:#060606;stroke-width:15;stroke-linecap:round;stroke-linejoin:round;stroke-miterlimit:10;stroke-dasharray:none;stroke-opacity:1"
             id="path1675" /></g><g
           id="g1677"
           transform="translate(214.5532,298.2988)"><path
             d="M 0,0 82.608,-46.035"
             style="fill:none;stroke:#060606;stroke-width:15;stroke-linecap:round;stroke-linejoin:round;stroke-miterlimit:10;stroke-dasharray:none;stroke-opacity:1"
             id="path1679" /></g><g
           id="g1681"
           transform="translate(255.7637,187.3271)"><path
             d="M 0,0 -0.068,-88.823"
             style="fill:none;stroke:#060606;stroke-width:15;stroke-linecap:round;stroke-linejoin:round;stroke-miterlimit:10;stroke-dasharray:none;stroke-opacity:1"
             id="path1683" /></g><g
           id="g1685"
           transform="translate(255.9321,69.6763)"><path
             d="M 0,0 V -11.698"
             style="fill:none;stroke:#060606;stroke-width:15;stroke-linecap:round;stroke-linejoin:round;stroke-miterlimit:10;stroke-dasharray:none;stroke-opacity:1"
             id="path1687" /></g><g
           id="g1689"
           transform="translate(280.748,84.2954)"><path
             d="M 0,0 10.117,-5.849"
             style="fill:none;stroke:#060606;stroke-width:15;stroke-linecap:round;stroke-linejoin:round;stroke-miterlimit:10;stroke-dasharray:none;stroke-opacity:1"
             id="path1691" /></g><g
           id="g1693"
           transform="translate(280.5117,113.1235)"><path
             d="M 0,0 10.117,5.849"
             style="fill:none;stroke:#060606;stroke-width:15;stroke-linecap:round;stroke-linejoin:round;stroke-miterlimit:10;stroke-dasharray:none;stroke-opacity:1"
             id="path1695" /></g><g
           id="g1697"
           transform="translate(230.6436,112.7139)"><path
             d="M 0,0 -10.118,5.849"
             style="fill:none;stroke:#060606;stroke-width:15;stroke-linecap:round;stroke-linejoin:round;stroke-miterlimit:10;stroke-dasharray:none;stroke-opacity:1"
             id="path1699" /></g><g
           id="g1701"
           transform="translate(230.8799,83.8853)"><path
             d="M 0,0 -10.118,-5.849"
             style="fill:none;stroke:#060606;stroke-width:15;stroke-linecap:round;stroke-linejoin:round;stroke-miterlimit:10;stroke-dasharray:none;stroke-opacity:1"
             id="path1703" /></g><g
           id="g1705"
           transform="translate(108.2847,92.124)"><path
             d="m 0,0 53.704,17.324 c 6.892,2.224 10.679,9.611 8.461,16.504 L -1.765,232.516 -80.439,207.136 -16.516,8.467 C -14.295,1.566 -6.899,-2.226 0,0 Z"
             style="fill:none;stroke:#060606;stroke-width:15;stroke-linecap:round;stroke-linejoin:round;stroke-miterlimit:10;stroke-dasharray:none;stroke-opacity:1"
             id="path1707" /></g><g
           id="g1709"
           transform="translate(16.7354,326.0288)"><path
             d="M 0,0 -9.235,-33.332 110.13,5.174 21.234,76.64 10.658,38.468"
             style="fill:none;stroke:#060606;stroke-width:15;stroke-linecap:round;stroke-linejoin:round;stroke-miterlimit:10;stroke-dasharray:none;stroke-opacity:1"
             id="path1711" /></g><g
           id="g1713"
           transform="translate(114.7939,298.9248)"><path
             d="M 0,0 -64.603,-69.113"
             style="fill:none;stroke:#060606;stroke-width:15;stroke-linecap:round;stroke-linejoin:round;stroke-miterlimit:10;stroke-dasharray:none;stroke-opacity:1"
             id="path1715" /></g><g
           id="g1717"
           transform="translate(63.4575,188.5806)"><path
             d="M 0,0 64.603,69.112"
             style="fill:none;stroke:#060606;stroke-width:15;stroke-linecap:round;stroke-linejoin:round;stroke-miterlimit:10;stroke-dasharray:none;stroke-opacity:1"
             id="path1719" /></g><g
           id="g1721"
           transform="translate(89.1558,108.7124)"><path
             d="M 0,0 64.603,69.112"
             style="fill:none;stroke:#060606;stroke-width:15;stroke-linecap:round;stroke-linejoin:round;stroke-miterlimit:10;stroke-dasharray:none;stroke-opacity:1"
             id="path1723" /></g><g
           id="g1725"
           transform="translate(140.4922,219.0566)"><path
             d="M 0,0 -64.603,-69.113"
             style="fill:none;stroke:#060606;stroke-width:15;stroke-linecap:round;stroke-linejoin:round;stroke-miterlimit:10;stroke-dasharray:none;stroke-opacity:1"
             id="path1727" /></g><g
           id="g1729"
           transform="translate(135.1274,100.7832)"><path
             d="M 0,0 18.631,-54.624"
             style="fill:none;stroke:#060606;stroke-width:15;stroke-linecap:round;stroke-linejoin:round;stroke-miterlimit:10;stroke-dasharray:none;stroke-opacity:1"
             id="path1731" /></g><g
           id="g1733"
           transform="translate(162.3335,18.6382)"><path
             d="M 0,0 3.571,-11.138"
             style="fill:none;stroke:#060606;stroke-width:15;stroke-linecap:round;stroke-linejoin:round;stroke-miterlimit:10;stroke-dasharray:none;stroke-opacity:1"
             id="path1735" /></g><g
           id="g1737"
           transform="translate(134.2427,24.9634)"><path
             d="M 0,0 -7.848,-8.666"
             style="fill:none;stroke:#060606;stroke-width:15;stroke-linecap:round;stroke-linejoin:round;stroke-miterlimit:10;stroke-dasharray:none;stroke-opacity:1"
             id="path1739" /></g><g
           id="g1741"
           transform="translate(125.6685,52.4849)"><path
             d="M 0,0 -11.419,2.473"
             style="fill:none;stroke:#060606;stroke-width:15;stroke-linecap:round;stroke-linejoin:round;stroke-miterlimit:10;stroke-dasharray:none;stroke-opacity:1"
             id="path1743" /></g><g
           id="g1745"
           transform="translate(173.2749,67.3555)"><path
             d="M 0,0 7.848,8.666"
             style="fill:none;stroke:#060606;stroke-width:15;stroke-linecap:round;stroke-linejoin:round;stroke-miterlimit:10;stroke-dasharray:none;stroke-opacity:1"
             id="path1747" /></g><g
           id="g1749"
           transform="translate(181.8496,39.834)"><path
             d="M 0,0 11.419,-2.473"
             style="fill:none;stroke:#060606;stroke-width:15;stroke-linecap:round;stroke-linejoin:round;stroke-miterlimit:10;stroke-dasharray:none;stroke-opacity:1"
             id="path1751" /></g><g
           id="g1753"
           transform="translate(405.4805,324.6401)"><path
             d="m 0,0 -63.93,-198.688 c -2.218,-6.894 1.569,-14.28 8.461,-16.503 l 53.703,-17.325 c 6.9,-2.226 14.296,1.566 16.517,8.467 L 78.674,-25.38 Z"
             style="fill:none;stroke:#060606;stroke-width:15;stroke-linecap:round;stroke-linejoin:round;stroke-miterlimit:10;stroke-dasharray:none;stroke-opacity:1"
             id="path1755" /></g><g
           id="g1757"
           transform="translate(474.0303,402.6685)"><path
             d="M 0,0 -88.896,-71.465 30.47,-109.971 Z"
             style="fill:none;stroke:#060606;stroke-width:15;stroke-linecap:round;stroke-linejoin:round;stroke-miterlimit:10;stroke-dasharray:none;stroke-opacity:1"
             id="path1759" /></g><g
           id="g1761"
           transform="translate(448.543,188.5806)"><path
             d="M 0,0 -64.604,69.112"
             style="fill:none;stroke:#060606;stroke-width:15;stroke-linecap:round;stroke-linejoin:round;stroke-miterlimit:10;stroke-dasharray:none;stroke-opacity:1"
             id="path1763" /></g><g
           id="g1765"
           transform="translate(397.2061,298.9248)"><path
             d="M 0,0 64.604,-69.113"
             style="fill:none;stroke:#060606;stroke-width:15;stroke-linecap:round;stroke-linejoin:round;stroke-miterlimit:10;stroke-dasharray:none;stroke-opacity:1"
             id="path1767" /></g><g
           id="g1769"
           transform="translate(427.6631,158.9819)"><path
             d="M 0,0 C 2.815,-3.013 5.632,-6.025 8.448,-9.038"
             style="fill:none;stroke:#060606;stroke-width:15;stroke-linecap:round;stroke-linejoin:round;stroke-miterlimit:10;stroke-dasharray:none;stroke-opacity:1"
             id="path1771" /></g><g
           id="g1773"
           transform="translate(371.5078,219.0566)"><path
             d="M 0,0 C 7.492,-9.057 15.492,-17.057 23.799,-25.46"
             style="fill:none;stroke:#060606;stroke-width:15;stroke-linecap:round;stroke-linejoin:round;stroke-miterlimit:10;stroke-dasharray:none;stroke-opacity:1"
             id="path1775" /></g><g
           id="g1777"
           transform="translate(422.8447,108.7124)"><path
             d="M 0,0 -64.604,69.112"
             style="fill:none;stroke:#060606;stroke-width:15;stroke-linecap:round;stroke-linejoin:round;stroke-miterlimit:10;stroke-dasharray:none;stroke-opacity:1"
             id="path1779" /></g><g
           id="g1781"
           transform="translate(376.873,100.7832)"><path
             d="M 0,0 -18.632,-54.624"
             style="fill:none;stroke:#060606;stroke-width:15;stroke-linecap:round;stroke-linejoin:round;stroke-miterlimit:10;stroke-dasharray:none;stroke-opacity:1"
             id="path1783" /></g><g
           id="g1785"
           transform="translate(349.667,18.6382)"><path
             d="M 0,0 -3.571,-11.138"
             style="fill:none;stroke:#060606;stroke-width:15;stroke-linecap:round;stroke-linejoin:round;stroke-miterlimit:10;stroke-dasharray:none;stroke-opacity:1"
             id="path1787" /></g><g
           id="g1789"
           transform="translate(377.7568,24.9634)"><path
             d="M 0,0 7.849,-8.666"
             style="fill:none;stroke:#060606;stroke-width:15;stroke-linecap:round;stroke-linejoin:round;stroke-miterlimit:10;stroke-dasharray:none;stroke-opacity:1"
             id="path1791" /></g><g
           id="g1793"
           transform="translate(386.332,52.4849)"><path
             d="M 0,0 11.419,2.473"
             style="fill:none;stroke:#060606;stroke-width:15;stroke-linecap:round;stroke-linejoin:round;stroke-miterlimit:10;stroke-dasharray:none;stroke-opacity:1"
             id="path1795" /></g><g
           id="g1797"
           transform="translate(338.7246,67.3555)"><path
             d="M 0,0 -7.848,8.666"
             style="fill:none;stroke:#060606;stroke-width:15;stroke-linecap:round;stroke-linejoin:round;stroke-miterlimit:10;stroke-dasharray:none;stroke-opacity:1"
             id="path1799" /></g><g
           id="g1801"
           transform="translate(330.1504,39.834)"><path
             d="M 0,0 -11.419,-2.473"
             style="fill:none;stroke:#060606;stroke-width:15;stroke-linecap:round;stroke-linejoin:round;stroke-miterlimit:10;stroke-dasharray:none;stroke-opacity:1"
             id="path1803" /></g></g></g></g></svg>
